<?xml version="1.0" standalone="no"?>
<!DOCTYPE svg PUBLIC "-//W3C//DTD SVG 20010904//EN"
 "http://www.w3.org/TR/2001/REC-SVG-20010904/DTD/svg10.dtd">
<svg version="1.0" xmlns="http://www.w3.org/2000/svg"
 width="16.000000pt" height="16.000000pt" viewBox="0 0 16.000000 16.000000"
 preserveAspectRatio="xMidYMid meet">
<metadata>
Created by potrace 1.11, written by Peter Selinger 2001-2013
</metadata>
<g transform="translate(0.000000,16.000000) scale(0.003200,-0.003200)"
fill="#000000" stroke="none">
<path d="M2320 4964 c-19 -2 -78 -9 -130 -15 -429 -49 -867 -233 -1232 -519
-106 -83 -305 -282 -388 -388 -285 -364 -458 -772 -522 -1232 -17 -125 -17
-496 1 -620 65 -464 235 -867 521 -1232 83 -106 282 -305 388 -388 365 -286
768 -456 1232 -521 124 -18 496 -18 620 0 464 65 867 235 1232 521 106 83 305
282 388 388 286 365 456 768 521 1232 18 124 18 495 1 620 -64 460 -237 868
-522 1232 -83 106 -282 305 -388 388 -356 278 -756 451 -1196 516 -97 14 -454
27 -526 18z m315 -967 c176 -86 332 -167 347 -181 15 -14 28 -36 30 -48 2 -13
-9 -106 -23 -208 -15 -102 -25 -186 -24 -188 1 -2 60 58 131 132 70 74 141
141 156 147 16 6 43 9 61 6 55 -9 700 -331 716 -357 19 -34 17 -59 -38 -447
-33 -235 -56 -361 -66 -377 -21 -32 -47 -40 -223 -71 -81 -14 -158 -28 -171
-31 -20 -4 9 -22 146 -88 93 -46 179 -94 191 -106 15 -16 22 -37 22 -64 0 -79
-101 -748 -116 -772 -9 -13 -30 -28 -47 -33 -47 -15 -708 -131 -748 -131 -19
0 -44 7 -56 15 -12 8 -61 89 -110 180 -48 90 -90 161 -94 157 -3 -4 -14 -65
-23 -137 -32 -247 -44 -276 -110 -291 -120 -27 -735 -129 -753 -126 -12 2 -33
15 -45 27 -27 28 -366 661 -368 690 -6 56 3 69 141 211 78 80 139 147 136 150
-3 3 -82 -9 -175 -25 -208 -38 -242 -39 -272 -8 -11 12 -99 168 -195 347 -147
274 -174 332 -175 368 0 43 1 44 266 318 147 151 275 279 285 284 36 20 77 8
233 -65 87 -42 160 -74 162 -73 1 2 -34 71 -79 153 -110 203 -110 202 5 326
225 242 464 478 488 481 40 6 59 -2 395 -165z"/>
<path d="M2110 3709 l-182 -189 122 -230 c67 -126 126 -230 132 -230 27 0 485
82 498 89 11 6 24 74 51 262 l36 254 -126 64 c-69 35 -176 88 -238 117 l-111
53 -182 -190z"/>
<path d="M3141 3209 l-183 -189 122 -230 c79 -149 127 -230 137 -230 17 0 468
78 493 86 13 3 23 57 49 252 19 136 36 252 38 257 4 11 -29 28 -303 160 l-171
82 -182 -188z"/>
<path d="M1321 2894 l-181 -186 19 -32 c10 -17 65 -119 121 -226 57 -107 105
-197 107 -199 4 -6 506 80 515 88 5 5 78 481 78 512 0 9 -447 229 -465 229 -7
0 -94 -84 -194 -186z"/>
<path d="M2470 2872 l-256 -46 -33 -240 c-18 -133 -35 -255 -38 -271 l-5 -30
244 -118 243 -118 157 158 c85 87 170 174 187 195 l31 36 -127 241 c-71 132
-132 240 -138 240 -5 -1 -125 -22 -265 -47z"/>
<path d="M2989 2079 l-182 -190 26 -47 c13 -26 66 -126 117 -222 51 -96 96
-179 101 -184 9 -10 498 71 514 86 6 5 26 123 45 263 36 253 36 254 15 263
-11 6 -118 57 -237 115 l-216 105 -183 -189z"/>
<path d="M1861 1874 l-180 -186 59 -111 c33 -62 88 -165 123 -229 37 -71 68
-118 77 -118 27 0 495 82 502 89 7 6 80 512 75 518 -8 8 -456 223 -465 223 -5
0 -91 -84 -191 -186z"/>
</g>
</svg>
