<?xml version="1.0" encoding="utf-8"?>
<!-- Generator: Adobe Illustrator 16.0.0, SVG Export Plug-In . SVG Version: 6.00 Build 0)  -->
<svg version="1.2" baseProfile="tiny" id="Layer_1" xmlns="http://www.w3.org/2000/svg" xmlns:xlink="http://www.w3.org/1999/xlink"
	 x="0px" y="0px" width="53.5px" height="54.699px" viewBox="0 0 53.5 54.699" overflow="scroll" xml:space="preserve">
<g id="FIORI_3_">
	<polygon fill="none" stroke="#292929" stroke-width="0.4" stroke-miterlimit="10" points="38.481,31.718 37.593,38.033 
		31.313,39.141 28.318,33.509 32.749,28.922 	"/>
	<polygon fill="none" stroke="#292929" stroke-width="0.4" stroke-miterlimit="10" points="39.861,21.381 38.974,27.696 
		32.693,28.804 29.699,23.172 34.129,18.585 	"/>
	<polygon fill="none" stroke="#292929" stroke-width="0.4" stroke-miterlimit="10" points="28.206,33.557 27.318,39.872 
		21.039,40.98 18.044,35.349 22.475,30.761 	"/>
	<polygon fill="none" stroke="#292929" stroke-width="0.4" stroke-miterlimit="10" points="16.118,31.64 13.124,26.01 
		17.555,21.422 23.286,24.217 22.398,30.533 	"/>
	<polygon fill="none" stroke="#292929" stroke-width="0.4" stroke-miterlimit="10" points="30.454,16.794 29.566,23.109 
		23.286,24.217 20.293,18.586 24.723,13.999 	"/>
	<polygon display="none" fill="none" stroke="#292929" stroke-width="0.4" stroke-miterlimit="10" points="13.864,-37.231 
		19.024,-40.979 24.184,-37.231 22.213,-31.166 15.835,-31.166 	"/>
	<polygon display="none" fill="none" stroke="#292929" stroke-width="0.4" stroke-miterlimit="10" points="5.426,-31.005 
		10.585,-34.754 15.745,-31.006 13.773,-24.939 7.396,-24.939 	"/>
	<polygon display="none" fill="none" stroke="#292929" stroke-width="0.4" stroke-miterlimit="10" points="22.292,-31.005 
		27.451,-34.754 32.61,-31.006 30.64,-24.939 24.262,-24.939 	"/>
	<polygon display="none" fill="none" stroke="#292929" stroke-width="0.4" stroke-miterlimit="10" points="29.343,-21.091 
		27.373,-15.026 20.995,-15.026 19.024,-21.091 24.184,-24.84 	"/>
	<polygon display="none" fill="none" stroke="#292929" stroke-width="0.4" stroke-miterlimit="10" points="8.705,-21.091 
		13.864,-24.839 19.024,-21.091 17.053,-15.026 10.676,-15.026 	"/>
</g>
<g>
</g>
<g>
</g>
<g>
</g>
<g>
</g>
<g>
</g>
<g>
</g>
<g>
</g>
<g>
</g>
<g>
</g>
<g>
</g>
<g>
</g>
<g>
</g>
<g>
</g>
<g>
</g>
<g>
</g>
</svg>
