<?xml version="1.0" encoding="utf-8"?>
<!-- Generator: Adobe Illustrator 16.0.0, SVG Export Plug-In . SVG Version: 6.00 Build 0)  -->
<svg version="1.2" baseProfile="tiny" xmlns="http://www.w3.org/2000/svg" xmlns:xlink="http://www.w3.org/1999/xlink" x="0px"
	 y="0px" width="320px" height="320px" viewBox="0 0 320 320" overflow="scroll" xml:space="preserve">
<g id="Layer_2">
	<g>
		<path fill="#00CCCC" d="M84.581,298.403c-0.498,0.456-1.269,0.684-2.313,0.684h-0.595c-1.044,0-1.814-0.228-2.313-0.684
			s-0.747-1.188-0.747-2.196v-3.24c0-1.008,0.249-1.739,0.747-2.196c0.498-0.455,1.269-0.684,2.313-0.684h0.595
			c1.044,0,1.814,0.229,2.313,0.684c0.498,0.457,0.747,1.188,0.747,2.196v3.24C85.328,297.215,85.079,297.947,84.581,298.403z
			 M83.456,291.743c-0.229-0.204-0.564-0.307-1.008-0.307h-0.954c-0.444,0-0.78,0.103-1.008,0.307
			c-0.229,0.204-0.342,0.492-0.342,0.863v3.961c0,0.372,0.113,0.659,0.342,0.863c0.228,0.204,0.563,0.307,1.008,0.307h0.954
			c0.443,0,0.779-0.103,1.008-0.307c0.228-0.204,0.342-0.491,0.342-0.863v-3.961C83.798,292.235,83.684,291.947,83.456,291.743z"/>
		<path fill="#00CCCC" d="M92.006,299.087h-0.612c-0.972,0-1.694-0.228-2.169-0.684c-0.474-0.456-0.711-1.188-0.711-2.196v-6.12
			h1.53v6.48c0,0.359,0.104,0.645,0.314,0.854s0.495,0.315,0.855,0.315h0.972c0.384,0,0.669-0.097,0.855-0.288
			c0.186-0.192,0.291-0.408,0.314-0.648v-6.714h1.53v9h-1.439v-0.414C93.05,298.949,92.569,299.087,92.006,299.087z"/>
		<path fill="#00CCCC" d="M100.682,298.493c-0.324-0.396-0.486-0.918-0.486-1.566v-5.49h-1.71v-1.35h1.71v-2.16h1.53v2.16h2.628
			v1.35h-2.628v5.58c0,0.265,0.065,0.45,0.198,0.559c0.132,0.107,0.336,0.162,0.611,0.162h1.818v1.35h-2.268
			C101.474,299.087,101.006,298.889,100.682,298.493z"/>
		<path fill="#00CCCC" d="M109.285,290.087v0.432c0.372-0.288,0.852-0.432,1.44-0.432h0.647c1.056,0,1.83,0.225,2.322,0.675
			s0.738,1.186,0.738,2.205v3.24c0,1.008-0.249,1.74-0.747,2.196s-1.27,0.684-2.313,0.684h-1.998v3.06h-1.529v-12.06H109.285z
			 M109.663,291.752c-0.191,0.21-0.288,0.435-0.288,0.675v5.311h2.179c0.443,0,0.779-0.103,1.008-0.307
			c0.228-0.204,0.342-0.491,0.342-0.863v-3.961c0-0.371-0.114-0.659-0.342-0.863c-0.229-0.204-0.564-0.307-1.008-0.307h-1.009
			C110.149,291.437,109.855,291.542,109.663,291.752z"/>
		<path fill="#00CCCC" d="M121.166,299.087h-0.612c-0.972,0-1.694-0.228-2.169-0.684c-0.474-0.456-0.711-1.188-0.711-2.196v-6.12
			h1.53v6.48c0,0.359,0.104,0.645,0.314,0.854s0.495,0.315,0.855,0.315h0.972c0.384,0,0.669-0.097,0.855-0.288
			c0.186-0.192,0.291-0.408,0.314-0.648v-6.714h1.53v9h-1.439v-0.414C122.21,298.949,121.729,299.087,121.166,299.087z"/>
		<path fill="#00CCCC" d="M129.842,298.493c-0.324-0.396-0.486-0.918-0.486-1.566v-5.49h-1.71v-1.35h1.71v-2.16h1.53v2.16h2.628
			v1.35h-2.628v5.58c0,0.265,0.065,0.45,0.198,0.559c0.132,0.107,0.336,0.162,0.611,0.162h1.818v1.35h-2.268
			C130.634,299.087,130.166,298.889,129.842,298.493z"/>
		<path fill="#00CCCC" d="M146.6,291.437v-1.35h4.176v7.65h2.664v1.35h-4.194v-7.65H146.6z M150.865,286.487v1.619h-1.71v-1.619
			H150.865z"/>
		<path fill="#00CCCC" d="M161.782,298.529c-0.463,0.372-1.132,0.558-2.007,0.558h-2.683v-1.35h2.862
			c0.324,0,0.569-0.069,0.738-0.207c0.167-0.138,0.252-0.339,0.252-0.604v-0.954c0-0.54-0.259-0.81-0.774-0.81h-0.666
			c-0.84,0-1.467-0.183-1.881-0.549s-0.621-0.945-0.621-1.737v-0.522c0-0.804,0.228-1.383,0.684-1.736
			c0.456-0.354,1.128-0.531,2.017-0.531h2.412v1.35h-2.593c-0.3,0-0.54,0.069-0.72,0.207c-0.18,0.139-0.27,0.34-0.27,0.604v0.647
			c0,0.276,0.081,0.48,0.243,0.612c0.161,0.132,0.368,0.198,0.62,0.198h0.612c0.804,0,1.416,0.195,1.836,0.585
			s0.63,0.969,0.63,1.737v0.81C162.475,297.593,162.244,298.157,161.782,298.529z"/>
		<path fill="#00CCCC" d="M179.332,287.99c-0.114,0.102-0.171,0.23-0.171,0.387v1.71h2.898v1.35h-2.898v6.301h2.178v1.35h-5.237
			v-1.35h1.529v-6.301h-1.529v-1.35h1.529v-1.62c0-0.612,0.174-1.095,0.522-1.449c0.348-0.354,0.798-0.53,1.35-0.53h2.736v1.35
			h-2.448C179.6,287.837,179.446,287.888,179.332,287.99z M188.404,298.655c-0.306-0.288-0.459-0.744-0.459-1.368v-9.45H185.3v-1.35
			h4.176v10.71c0,0.191,0.048,0.33,0.144,0.414s0.258,0.126,0.486,0.126h2.394v1.35h-3.023
			C189.067,299.087,188.71,298.943,188.404,298.655z"/>
		<path fill="#00CCCC" d="M201.22,298.403c-0.498,0.456-1.269,0.684-2.313,0.684h-0.595c-1.044,0-1.814-0.228-2.313-0.684
			s-0.747-1.188-0.747-2.196v-3.24c0-1.008,0.249-1.739,0.747-2.196c0.498-0.455,1.269-0.684,2.313-0.684h0.595
			c1.044,0,1.814,0.229,2.313,0.684c0.498,0.457,0.747,1.188,0.747,2.196v3.24C201.967,297.215,201.718,297.947,201.22,298.403z
			 M200.095,291.743c-0.229-0.204-0.564-0.307-1.008-0.307h-0.954c-0.444,0-0.78,0.103-1.008,0.307
			c-0.229,0.204-0.342,0.492-0.342,0.863v3.961c0,0.372,0.113,0.659,0.342,0.863c0.228,0.204,0.563,0.307,1.008,0.307h0.954
			c0.443,0,0.779-0.103,1.008-0.307c0.228-0.204,0.342-0.491,0.342-0.863v-3.961C200.437,292.235,200.322,291.947,200.095,291.743z"
			/>
		<path fill="#00CCCC" d="M208.375,294.569l-0.973,4.518h-1.674l-1.62-9h1.53l1.025,7.146l1.188-5.526h1.17l1.08,5.526l1.026-7.146
			h1.439l-1.602,9h-1.729L208.375,294.569z"/>
		<path fill="#00CCCC" d="M215.628,298.412c-0.492-0.45-0.737-1.186-0.737-2.205v-3.24c0-1.032,0.222-1.77,0.666-2.214
			c0.443-0.443,1.182-0.666,2.214-0.666h0.846c0.852,0,1.497,0.237,1.935,0.711c0.438,0.475,0.657,1.167,0.657,2.079v2.34h-4.788
			v1.351c0,0.372,0.114,0.659,0.343,0.863c0.228,0.204,0.563,0.307,1.008,0.307h2.861v1.35h-2.682
			C216.895,299.087,216.12,298.862,215.628,298.412z M219.714,292.517c0-0.312-0.102-0.569-0.306-0.773s-0.462-0.307-0.774-0.307
			h-1.044c-0.432,0-0.734,0.1-0.908,0.298c-0.175,0.197-0.262,0.488-0.262,0.872v1.261h3.294V292.517z"/>
		<path fill="#00CCCC" d="M226.032,297.737v-6.301h-1.314v-1.35h2.754v0.486c0.396-0.324,0.876-0.486,1.44-0.486h1.854v1.44h-2.033
			c-0.385,0-0.673,0.123-0.864,0.368c-0.192,0.246-0.294,0.495-0.307,0.747v5.095h1.963v1.35h-4.807v-1.35H226.032z"/>
		<path fill="#00CCCC" d="M239.542,298.529c-0.463,0.372-1.132,0.558-2.007,0.558h-2.683v-1.35h2.862
			c0.324,0,0.569-0.069,0.738-0.207c0.167-0.138,0.252-0.339,0.252-0.604v-0.954c0-0.54-0.259-0.81-0.774-0.81h-0.666
			c-0.84,0-1.467-0.183-1.881-0.549s-0.621-0.945-0.621-1.737v-0.522c0-0.804,0.228-1.383,0.684-1.736
			c0.456-0.354,1.128-0.531,2.017-0.531h2.412v1.35h-2.593c-0.3,0-0.54,0.069-0.72,0.207c-0.18,0.139-0.27,0.34-0.27,0.604v0.647
			c0,0.276,0.081,0.48,0.243,0.612c0.161,0.132,0.368,0.198,0.62,0.198h0.612c0.804,0,1.416,0.195,1.836,0.585
			s0.63,0.969,0.63,1.737v0.81C240.234,297.593,240.004,298.157,239.542,298.529z"/>
	</g>
	<rect display="none" fill="#00CCCC" width="320" height="320"/>
	<g>
	</g>
</g>
<g id="Layer_3">
</g>
<g id="Layer_1">
	<path fill="none" stroke="#00CCCC" stroke-width="3" stroke-miterlimit="10" d="M130.5,171v23.5h-69v-69h69V149 M248.502,168.564
		l8.064-8.064l-8.063-8.063 M199,183.5h23 M176.67,160.813c6.449,0,11.667,4.98,11.667,11.135 M199.785,183.531
		c-6.35,0-11.487-5.516-11.487-12.332 M214.502,191.564l8.064-8.064l-8.063-8.063 M130.609,160.414
		c12.657,0,22.898-10.241,22.898-22.896 M153.508,137.518c0-13.209,10.241-23.897,22.896-23.897 M170.357,122.2l8.131-8.132
		l-8.131-8.131 M165.637,217.649l8.018,10.97l12.91-4.09l-0.065-13.52l-12.944-4.259L165.637,217.649z M165.59,240.059l7.957-11.015
		l-7.881-11.015l-12.838,4.24l-0.049,13.627L165.59,240.059z M173.555,206.751l-8.025-10.976l-12.919,4.084l0.071,13.523
		l12.955,4.267L173.555,206.751z M199.564,229.227l7.957-11.016l-7.881-11.016l-12.838,4.24l-0.051,13.629L199.564,229.227z
		 M186.75,210.936l7.957-11.016l-7.88-11.016l-12.839,4.241l-0.049,13.627L186.75,210.936z M186.693,246.739l7.957-11.015
		l-7.88-11.015l-12.837,4.241l-0.051,13.625L186.693,246.739z M164.738,160.238c23.576,0,45.702-15.891,53.839-37.917
		 M210.638,102.649l8.017,10.971l12.912-4.091L231.5,96.01l-12.944-4.259L210.638,102.649z M210.592,125.06l7.957-11.015
		l-7.881-11.015l-12.838,4.241l-0.05,13.627L210.592,125.06z M218.556,91.751l-8.024-10.976l-12.92,4.085l0.072,13.523l12.954,4.266
		L218.556,91.751z M244.566,114.227l7.956-11.015l-7.881-11.017l-12.837,4.241l-0.051,13.629L244.566,114.227z M231.751,95.936
		l7.958-11.016l-7.881-11.015l-12.838,4.241l-0.049,13.627L231.751,95.936z M231.695,131.74l7.957-11.015l-7.881-11.015
		l-12.837,4.241l-0.05,13.626L231.695,131.74z M96,160.5h161 M173.883,205.834c0-25.058-24.547-45.333-54.881-45.333"/>
	<g>
	</g>
	<g>
	</g>
	<g>
	</g>
	<g>
	</g>
	<g>
	</g>
	<g>
	</g>
	<g>
	</g>
	<g>
	</g>
	<g>
	</g>
	<g>
	</g>
	<g>
	</g>
	<g>
	</g>
	<g>
	</g>
	<g>
	</g>
	<g>
	</g>
</g>
</svg>
